PathFileType	4	(X/Y/Z)	OpenSim_Sub06_CSStiffKnee_Gyro.trc
DataRate	CameraRate	NumFrames	NumMarkers	Units	OrigDataRate	OrigDataStartFrame	OrigNumFrames
100	100	20	8	m	100	4478	7164
Frame#	Time	torso_imu_offset_imu	pelvis_imu_offset_imu	tibia_r_imu_offset_imu	femur_r_imu_offset_imu	tibia_l_imu_offset_imu	femur_l_imu_offset_imu	toes_r_imu_offset_imu	toes_l_imu_offset_imu
				X1	Y1	Z1	X2	Y2	Z2	X3	Y3	Z3	X4	Y4	Z4	X5	Y5	Z5	X6	Y6	Z6	X7	Y7	Z7	X8		Y8	Z8	

4478	44.77000000	-0.04577936	0.20052429	-0.05146997	-0.44309369	-0.04620279	-0.02490525	-0.08502202	0.21914331	-0.89834283	0.24560621	0.10293973	-0.73244431	0.60414204	-0.54327453	-1.33639875	0.19928873	-0.31857036	0.30992728	0.17633021	-0.54841964	-0.45580496	-0.59530347	1.42210557	-0.02439206
4479	44.78000000	-0.11473193	0.23120116	-0.07826430	-0.46548294	-0.06387456	-0.02735431	-0.03581488	0.25619742	-0.95616639	0.17738128	0.14042667	-0.69545031	0.11574705	-0.51466988	-0.70975278	-0.04178728	-0.22818313	0.14177200	0.17732418	-0.62530545	-0.45639763	0.85943732	0.89603217	0.03111394
4480	44.79000000	-0.17650510	0.26580770	-0.09402320	-0.48048189	-0.09824406	-0.00621475	0.00979579	0.30416130	-1.02320002	0.07926963	0.16269355	-0.64303418	-0.08686332	-0.52729576	-0.13221405	-0.20802277	-0.14852315	-0.06062706	0.17054918	-0.71182170	-0.44993801	1.47064385	0.38638186	0.14021539
4481	44.80000000	-0.22681210	0.30716787	-0.09551973	-0.49576608	-0.16488382	0.00715719	-0.03174234	0.35969988	-1.09636475	0.00504096	0.18961455	-0.57348980	0.14302514	-0.41966875	0.35814843	-0.37236018	-0.18172845	-0.27701211	0.14459836	-0.78712054	-0.44483176	0.86924245	-0.10818135	0.25814609
4482	44.81000000	-0.27341721	0.35281014	-0.09830493	-0.52432990	-0.22441869	0.03463289	-0.10669609	0.38972047	-1.17899479	-0.01445000	0.21694323	-0.51043386	0.12504083	-0.21322308	0.77334878	-0.54884693	-0.31545154	-0.41349617	0.13323315	-0.86664178	-0.45504280	0.60186150	-0.47442038	0.28331874
4483	44.82000000	-0.31988575	0.40179404	-0.09724589	-0.57625832	-0.27496889	0.03976799	-0.19033279	0.40216312	-1.26745470	-0.01284444	0.23959541	-0.46172709	-0.23785042	-0.12896507	1.09860229	-0.67908602	-0.50122540	-0.43986372	0.12118790	-0.94924976	-0.49729321	-0.65178884	-1.42128680	0.51553598
4484	44.83000000	-0.37644615	0.45337558	-0.09174380	-0.62224928	-0.31637174	0.04282965	-0.22622687	0.41744676	-1.36227690	0.00460245	0.25221081	-0.41499280	-0.59696211	-0.18085793	1.33080686	-0.75445002	-0.75868348	-0.36410685	0.14848686	-1.01515258	-0.55128343	-2.66403126	-2.99521125	0.67604926
4485	44.84000000	-0.43271032	0.50247088	-0.08906664	-0.65093736	-0.36042321	0.02385690	-0.20651990	0.41018971	-1.46679071	0.03558786	0.25198649	-0.37137985	-0.88050974	-0.31790148	1.48934091	-0.77288020	-1.07986953	-0.22525819	0.15109768	-1.11497740	-0.61224876	-0.47003089	-3.12204939	-0.00877721
4486	44.85000000	-0.51732033	0.54466564	-0.06637117	-0.67682225	-0.43490324	-0.03419673	-0.23299252	0.40429064	-1.56000447	0.08186822	0.25548613	-0.29398745	-1.05181361	-0.50389754	1.54747248	-0.84057088	-1.43422398	-0.04097268	0.11369146	-1.26321438	-0.69062497	-0.26883276	-4.14841459	0.23900757
4487	44.86000000	-0.57687407	0.52128871	-0.08302681	-0.68240601	-0.55550272	-0.17180589	-0.19598309	0.42998825	-1.63839531	0.14858816	0.27196971	-0.19323688	-0.80767600	-0.46951146	1.14402696	-0.94689333	-1.72396197	0.19772106	0.15649313	-1.46889068	-0.79180371	-5.03183287	-0.73027320	1.03586220
4488	44.87000000	-0.64012569	0.43340540	-0.09618771	-0.54881056	-0.72034192	-0.45397724	-0.05610930	0.45310512	-1.67004850	0.25059494	0.28893856	-0.04575072	-0.29836035	-0.16813316	0.78836586	-1.12572459	-1.89651707	0.43552786	0.22662081	-1.77397895	-0.93567070	-0.60994305	3.03743835	-0.03121412
4489	44.88000000	-0.69032079	0.41058535	0.06468850	-0.38659509	-0.83556162	-0.91907934	0.02374316	0.44068048	-1.66541159	0.41924497	0.31091130	0.13247032	-0.24917273	0.12785188	1.41140494	-0.88865938	-1.39835926	0.42770021	0.32329244	-2.09412660	-1.12757978	5.16637596	-0.92856065	-0.04717480
4490	44.89000000	-0.60456168	0.43191543	0.22304663	-0.38054285	-0.74707709	-1.25603612	-0.07697897	0.34881152	-1.67856757	0.51760663	0.33900125	0.24046564	-1.04069043	0.49030309	2.09437487	0.03549018	-0.09203582	0.25311503	0.34611360	-2.38840252	-1.34715335	-4.02791881	0.36105115	0.33174926
4491	44.90000000	-0.44305375	0.22469144	0.16160980	0.00584644	-0.46315398	-0.92144024	-0.16281451	0.22612256	-1.79151297	0.41084096	0.32949482	0.31228849	-1.60979742	0.32214280	2.33974201	0.12491290	0.39705578	0.02958475	0.37792971	-2.67957592	-1.54760563	-0.05987495	-0.30453458	-0.07005467
4492	44.91000000	-0.37271165	0.11684188	0.12335958	0.64505046	-0.23479192	-0.25039552	-0.10069848	0.07364046	-1.94031835	0.25847261	0.23701601	0.53653308	-1.80836649	-0.25115488	2.52725568	-0.72646155	0.03655184	-0.34268210	0.47973713	-3.04532890	-1.72510501	1.21309446	-0.10095582	-0.22278944
4493	44.92000000	-0.39959095	0.11015161	0.10939187	0.82160179	-0.11279246	0.03188349	-0.17282287	-0.08620436	-2.00625433	0.24356924	0.22908627	0.89116450	-1.93962512	-0.45248909	2.25830258	-1.55114211	-0.06208958	0.07104677	0.63095161	-3.46561762	-1.88985056	-0.36286322	-0.21120194	-0.22489852
4494	44.93000000	-0.41007889	0.09899206	0.02548037	0.59807520	-0.05281155	0.24945983	-0.25130716	-0.08976166	-2.04341537	0.19338671	0.44282468	1.26604408	-1.79211084	-0.47088170	1.58587592	-2.23030746	-0.24483321	0.55194174	0.58780802	-3.92266654	-2.01136522	0.52971218	-0.26624577	-0.23037022
4495	44.94000000	-0.38092955	0.04166621	-0.05161822	0.24535049	-0.09364876	0.43203684	-0.22241964	0.03004304	-2.09958451	0.04273030	0.78483162	1.58214819	-1.39597862	-0.37761805	0.79655547	-2.31333838	-0.66579064	0.79440628	0.36702616	-4.34091669	-2.13994674	0.06330854	-0.19936412	-0.13652748
4496	44.95000000	-0.48251148	-0.03328974	-0.10931488	-0.05640343	-0.14993895	0.51434562	-0.37995381	0.10776157	-2.17071535	-0.11158772	1.04734089	1.78022654	-1.17209233	-0.16883193	0.42521000	-1.67000910	-1.15757714	1.22641592	0.36020146	-4.58623140	-2.37374321	0.16077490	-0.13297325	-0.03277496
4497	44.96000000	-0.66478689	-0.04751654	-0.13874483	-0.31442685	-0.11573547	0.47126844	-0.53238532	0.15815951	-2.25846874	-0.21343168	1.13194307	1.83942262	-0.84114286	-0.30139996	0.52271140	-0.60428348	-1.55866674	1.68889949	0.05320200	-4.70253653	-2.66351978	-0.01753165	-0.06981799	0.07307112
